<svg width="372" height="337" viewBox="0 0 372 337" fill="none" xmlns="http://www.w3.org/2000/svg"><path d="M244.789 181.09h4.168v4.948h-4.168v9.551c0 .984.201 1.722.601 2.214.4.492 1.02.738 1.862.738.316 0 .61-.044.884-.131.273-.087.547-.188.821-.304v4.95c-.274.202-.663.361-1.168.477-.484.116-1.032.173-1.643.173-2.062 0-3.599-.68-4.609-2.04-.989-1.389-1.483-3.488-1.483-6.295v-9.333h-2.999v-4.948h2.999v-4.949l4.735-2.431v7.38Zm-61.814-.435c1.789 0 3.346.478 4.672 1.433 1.347.955 2.39 2.287 3.126 3.994.737 1.707 1.105 3.704 1.105 5.99s-.379 4.312-1.137 6.077c-.736 1.737-1.778 3.098-3.125 4.081-1.326.956-2.873 1.433-4.641 1.433-1.768 0-3.325-.478-4.672-1.433-1.326-.984-2.369-2.344-3.126-4.081-.737-1.765-1.106-3.791-1.106-6.077s.369-4.283 1.106-5.99c.757-1.707 1.8-3.039 3.126-3.994 1.347-.955 2.904-1.433 4.672-1.433Zm29.993 0c1.663 0 3.104.464 4.325 1.39 1.221.926 2.168 2.214 2.842 3.863.673 1.65 1.009 3.588 1.01 5.817 0 .463-.011.897-.032 1.302-.021.376-.052.738-.094 1.085h-11.943c.139 1.362.446 2.433.924 3.213.694 1.1 1.726 1.65 3.094 1.65.757 0 1.411-.174 1.958-.521.547-.347.958-.912 1.231-1.693h4.451c-.526 2.141-1.431 3.834-2.714 5.079-1.263 1.215-2.895 1.823-4.894 1.823-1.789 0-3.347-.477-4.673-1.433-1.326-.984-2.357-2.344-3.094-4.081-.715-1.736-1.073-3.733-1.073-5.99 0-2.286.358-4.283 1.073-5.99.737-1.736 1.758-3.083 3.063-4.038 1.305-.984 2.82-1.476 4.546-1.476Zm16.434 0c2.126 0 3.821.594 5.083 1.781 1.263 1.157 1.957 2.778 2.083 4.861h-4.23c-.084-.752-.379-1.316-.884-1.693-.505-.405-1.221-.608-2.146-.608-.842 0-1.474.174-1.895.522-.4.318-.599.781-.6 1.388 0 .521.169.941.505 1.259.337.289.894.551 1.673.782l2.905.824c1.621.464 2.842 1.332 3.663 2.605.841 1.244 1.262 2.72 1.262 4.428 0 2.17-.621 3.863-1.863 5.079-1.221 1.186-2.957 1.78-5.209 1.78-2.357 0-4.23-.651-5.619-1.953-1.389-1.302-2.147-3.098-2.274-5.384h4.231c.105.984.463 1.737 1.073 2.258.632.492 1.495.738 2.589.738.989 0 1.705-.188 2.147-.564.463-.405.695-.97.695-1.694 0-.549-.138-.969-.411-1.258-.253-.319-.726-.579-1.42-.782l-2.589-.738c-1.915-.55-3.326-1.375-4.231-2.474-.905-1.129-1.358-2.576-1.358-4.341 0-2.142.6-3.806 1.8-4.992 1.2-1.216 2.873-1.824 5.02-1.824Zm51.79 0c2.315 0 4.083.709 5.304 2.127 1.221 1.418 1.831 3.459 1.831 6.121v9.768c0 .723.032 1.461.095 2.214.084.723.21 1.504.379 2.344h-4.736c-.126-.637-.221-1.317-.284-2.041-.027-.475-.046-1.001-.055-1.577-.448 1.19-1.05 2.122-1.808 2.793-.947.839-2.105 1.259-3.473 1.259-1.599 0-2.873-.55-3.82-1.649-.947-1.129-1.42-2.62-1.42-4.472 0-2.055.558-3.704 1.673-4.948 1.136-1.274 2.715-2.099 4.735-2.475l3.979-.771v-1.139c0-.897-.221-1.592-.663-2.084-.421-.521-1.053-.781-1.895-.781-.8 0-1.442.188-1.926.564-.463.376-.767.926-.915 1.65h-4.515c.21-1.997.958-3.647 2.242-4.95 1.284-1.302 3.042-1.953 5.272-1.953Zm14.924 3.977c.32-1.028.835-1.877 1.548-2.544 1.01-.955 2.273-1.433 3.788-1.433 1.452 0 2.705.478 3.757 1.433 1.073.926 1.895 2.243 2.463 3.95.589 1.708.884 3.719.884 6.034 0 2.344-.305 4.385-.915 6.121-.611 1.737-1.464 3.082-2.558 4.037-1.094.956-2.389 1.433-3.884 1.433-1.536 0-2.789-.492-3.757-1.475-.667-.694-1.14-1.568-1.421-2.621v3.662h-4.64v-31.255h4.735v12.658Zm20.752-3.977c2.126 0 3.82.594 5.083 1.781 1.263 1.157 1.958 2.777 2.084 4.861h-4.23c-.085-.752-.379-1.316-.884-1.693-.505-.405-1.221-.608-2.148-.608-.841 0-1.473.174-1.894.522-.4.318-.6.781-.6 1.388 0 .521.169.941.505 1.259.337.289.895.551 1.674.782l2.904.824c1.621.463 2.842 1.332 3.662 2.605.842 1.244 1.264 2.72 1.264 4.428 0 2.17-.621 3.863-1.863 5.079-1.221 1.186-2.957 1.78-5.209 1.78-2.357 0-4.231-.651-5.62-1.953-1.389-1.302-2.147-3.098-2.274-5.384h4.232c.105.984.463 1.737 1.073 2.258.631.492 1.494.738 2.589.738.989 0 1.704-.188 2.146-.564.463-.405.695-.97.695-1.694 0-.549-.137-.969-.411-1.258-.252-.319-.726-.579-1.42-.782l-2.589-.738c-1.915-.55-3.326-1.375-4.231-2.474-.905-1.129-1.357-2.576-1.357-4.341 0-2.142.6-3.806 1.8-4.992 1.199-1.216 2.872-1.824 5.019-1.824Zm-143.385-3.559h-11.175v8.899h10.45v5.122h-10.45v12.112h-4.863v-31.255h16.038v5.122Zm29.728 3.559c.4 0 .694.058.884.174v6.077c-.106-.058-.253-.087-.443-.087-.189-.029-.421-.043-.694-.043-1.515 0-2.631.377-3.347 1.129-.715.724-1.073 1.982-1.073 3.777v11.547h-4.736V181.09h4.641v4.059c.377-1.264.892-2.271 1.547-3.018.863-.984 1.937-1.476 3.221-1.476Zm57.97 17.451h10.923v5.123h-15.785v-31.255h4.862v26.132Zm19.222-4.297c-.842.173-1.463.492-1.863.955-.4.463-.6 1.1-.6 1.91 0 .723.19 1.273.569 1.649.379.376.884.565 1.515.565.989 0 1.831-.362 2.526-1.085.694-.753 1.042-1.621 1.042-2.605v-2.061l-3.189.672Zm-97.428-8.032c-1.116 0-2.063.551-2.841 1.651-.758 1.099-1.137 2.633-1.137 4.601 0 1.36.179 2.532.536 3.516.358.955.832 1.693 1.421 2.214.61.521 1.284.782 2.021.782.736 0 1.4-.261 1.989-.782.61-.521 1.094-1.259 1.452-2.214.358-.984.537-2.156.537-3.516 0-1.996-.389-3.53-1.168-4.601-.758-1.1-1.695-1.651-2.81-1.651Zm116.836.087c-1.095 0-2 .551-2.715 1.651-.695 1.07-1.042 2.618-1.042 4.644 0 2.026.347 3.589 1.042 4.689.715 1.07 1.642 1.606 2.778 1.606 1.115 0 2.02-.551 2.715-1.65.694-1.1 1.042-2.662 1.042-4.688s-.358-3.575-1.073-4.645c-.695-1.071-1.611-1.607-2.747-1.607Zm-86.907-.52c-1.241 0-2.21.579-2.904 1.736-.407.7-.691 1.612-.852 2.735h7.206c-.081-1.4-.388-2.456-.923-3.169-.611-.868-1.453-1.302-2.527-1.302Zm-20.042-42.756c2.315 0 4.083.709 5.304 2.127 1.221 1.418 1.832 3.458 1.832 6.121v9.767c0 .723.032 1.461.095 2.213.084.724.209 1.506.378 2.345h-4.736c-.126-.636-.221-1.317-.284-2.04-.028-.476-.045-1.003-.055-1.579-.447 1.191-1.049 2.122-1.807 2.794-.947.839-2.105 1.259-3.473 1.259-1.599 0-2.873-.55-3.82-1.65-.947-1.128-1.421-2.618-1.421-4.47 0-2.055.557-3.705 1.673-4.95 1.136-1.273 2.716-2.098 4.736-2.474l3.978-.771v-1.139c0-.897-.221-1.591-.663-2.083-.421-.521-1.052-.783-1.894-.783-.8 0-1.443.189-1.927.565-.463.376-.767.927-.915 1.65h-4.514c.21-1.997.957-3.647 2.241-4.949 1.284-1.302 3.041-1.953 5.272-1.953Zm17.113 0c1.41 0 2.672.361 3.788 1.085 1.136.694 2.062 1.664 2.778 2.908.737 1.244 1.21 2.706 1.421 4.385h-4.578c-.232-1.071-.653-1.881-1.263-2.431-.589-.55-1.284-.825-2.084-.825-.757 0-1.42.261-1.988.781-.547.521-.969 1.259-1.264 2.214-.295.955-.441 2.084-.441 3.387 0 1.302.147 2.431.441 3.386.295.955.717 1.692 1.264 2.213.568.521 1.231.782 1.988.782.8 0 1.495-.276 2.084-.826.61-.549 1.031-1.36 1.263-2.43h4.578c-.211 1.678-.684 3.14-1.421 4.385-.716 1.244-1.642 2.228-2.778 2.952-1.116.694-2.378 1.041-3.788 1.041-1.684 0-3.169-.492-4.453-1.476-1.283-.984-2.293-2.344-3.03-4.08-.715-1.736-1.074-3.719-1.074-5.947s.359-4.211 1.074-5.947c.737-1.737 1.747-3.098 3.03-4.082 1.284-.983 2.769-1.475 4.453-1.475Zm-41.954-8.683c2.021 0 3.652.709 4.894 2.127 1.242 1.418 1.863 3.343 1.863 5.774 0 1.534-.264 2.851-.79 3.951-.526 1.099-1.231 1.939-2.115 2.517-.224.147-.454.274-.691.383.371.16.728.365 1.07.615.968.695 1.736 1.679 2.305 2.953.568 1.244.852 2.72.852 4.427 0 1.708-.294 3.213-.884 4.515-.568 1.273-1.378 2.258-2.43 2.952-1.031.695-2.252 1.042-3.662 1.042h-10.988v-31.256h10.576Zm14.392 31.256h-4.735v-31.256h4.735v31.256Zm42.146-13.302 5.43-8.838h5.462l-6.907 10.473 7.223 11.667h-5.62l-5.588-9.606v9.606h-4.736v-31.256h4.736v17.954Zm-32.486 3.882c-.842.174-1.462.492-1.862.955-.4.463-.601 1.1-.601 1.91 0 .724.19 1.274.569 1.65.379.376.884.564 1.515.564.99 0 1.831-.362 2.526-1.086.694-.752 1.042-1.62 1.042-2.604v-2.062l-3.189.673Zm-29.765 4.645h4.988c1.052 0 1.841-.391 2.367-1.172.547-.81.821-1.925.821-3.343 0-1.447-.294-2.59-.883-3.43-.569-.839-1.39-1.258-2.463-1.258h-4.83v9.203Zm0-13.979h4.577c.989 0 1.737-.318 2.242-.955.526-.665.789-1.635.789-2.908s-.253-2.229-.758-2.865c-.484-.666-1.21-.998-2.179-.998h-4.671v7.726Z" fill="#07130E"/><g clip-path="url(#clip0_4740_949)"><path d="M115.593 161.714h-10.125l-10.1252-19.613-31.585 61.115h10.1465l21.4375-41.501h10.1252l-21.4377 41.501h10.1728l21.3889-41.502v19.614l-11.27 21.888v11.383H78.1494l-.001.001h-10.125l.001-.001H47.7109L95.3428 122.4l20.2502 39.314Zm27.318 52.885h-15.983v-11.337l-11.335-21.934v-19.614l27.318 52.885Z" fill="#07130E"/></g><defs><clipPath id="clip0_4740_949"><path fill="#fff" d="M47.7109 121.75h95.2v93.5h-95.2z"/></clipPath></defs></svg>