<?xml version="1.0" encoding="UTF-8" standalone="no"?>
<!-- Created with Inkscape (http://www.inkscape.org/) -->

<svg
   width="990.84375"
   height="243"
   viewBox="0 0 990.84375 243"
   version="1.1"
   id="svg1"
   xml:space="preserve"
   xmlns:inkscape="http://www.inkscape.org/namespaces/inkscape"
   xmlns:sodipodi="http://sodipodi.sourceforge.net/DTD/sodipodi-0.dtd"
   xmlns="http://www.w3.org/2000/svg"
   xmlns:svg="http://www.w3.org/2000/svg"><sodipodi:namedview
     id="namedview1"
     pagecolor="#ffffff"
     bordercolor="#999999"
     borderopacity="1"
     inkscape:showpageshadow="2"
     inkscape:pageopacity="0"
     inkscape:pagecheckerboard="0"
     inkscape:deskcolor="#d1d1d1"
     inkscape:document-units="px" /><defs
     id="defs1" /><g
     inkscape:label="Layer 1"
     inkscape:groupmode="layer"
     id="layer1"
     transform="translate(-464.57812,-417.98047)"><path
       d="m 1347.5195,455.96289 c -17.916,0 -38.5515,3.74087 -46.0195,11.25586 -7.438,7.51499 -11.1719,20.39911 -11.1719,38.62109 v 68.47266 c 0,17.81498 3.7049,30.37941 11.1719,37.69141 7.468,7.31099 28.1035,10.96679 46.0195,10.96679 17.916,0 38.5545,-3.6558 46.0215,-10.96679 7.439,-7.312 11.1719,-19.84743 11.1719,-37.69141 v -68.47461 c 0,-18.22098 -3.7039,-31.07515 -11.1719,-38.61914 -7.467,-7.54399 -28.1055,-11.25586 -46.0215,-11.25586 z"
       style="fill:none"
       id="path6" /><path
       d="m 1146.4473,422.00781 v 183.54102 c 0,0 -3.709,-9.92301 -12.5,-19.75 -5.252,-5.87 -9.5262,-9.28894 -13.4922,-12.46094 -7.798,-6.23799 -14.4094,-11.52579 -24.9414,-32.63477 -6.262,-12.54198 -8.1695,-23.45435 -10.0625,-34.27734 -1.744,-9.97199 -3.474,-19.86568 -8.586,-30.88867 -9.405,-20.28598 -30.5351,-53.52734 -30.5351,-53.52734 h -68.90237 v 234.94531 h 43.38277 V 473.99219 c 0,0 6.4424,19.21198 21.2364,35.79297 7.506,8.41299 15.1945,13.7103 22.1875,18.52929 8.505,5.861 15.9796,11.01418 20.8476,20.20117 5.984,11.28699 7.2119,21.59594 8.5899,33.16993 1.064,8.93899 2.2196,18.63415 5.7246,30.11914 9.645,31.57597 21.5312,45.15039 21.5312,45.15039 h 68.6211 V 422.00781 Z"
       style="clip-rule:evenodd;fill:currentColor;fill-rule:evenodd"
       id="path5" /><path
       d="m 711.63281,421.98633 v 150.17969 c 0,30.31997 7.71555,52.66264 23.14453,67.14062 15.42899,14.44899 48.54748,21.67383 83.52344,21.67383 h 0.0586 c 34.97597,0 68.06546,-7.22484 83.52344,-21.67383 15.42899,-14.44898 24.59453,-36.87865 23.14453,-67.14062 -0.313,-6.538 -1.45358,-15.85556 -2.64257,-25.56055 l -0.002,-0.002 c -1.57,-12.81799 -3.22225,-26.3099 -3.15625,-34.9629 0.065,-7.18399 1.62119,-18.26597 3.11719,-28.91796 1.199,-8.537 2.36059,-16.79574 2.68359,-22.55274 0.522,-9.54599 0,-38.18359 0,-38.18359 h -50.11523 c 0,0 -2.378,28.9566 0,38.18359 1.655,6.446 7.49682,14.56779 13.50781,22.92578 7.57199,10.52699 15.41314,21.42728 15.49414,29.82227 0.081,8.38799 -7.76686,19.83728 -15.38086,30.94726 -6.05499,8.835 -11.96409,17.45535 -13.62109,24.15235 -1.658,6.71899 -2.5488,12.84483 -3.3418,18.29883 -1.37,9.42899 -2.44836,16.84613 -6.69336,21.82812 -6.69899,7.86299 -27.46289,11.80859 -46.54687,11.80859 -19.08298,0 -39.84788,-3.9166 -46.54688,-11.80859 -6.69999,-7.86299 -10.03515,-21.26797 -10.03515,-40.12695 v -146.0312 z"
       style="clip-rule:evenodd;fill:currentColor;fill-rule:evenodd"
       id="path4" /><path
       d="m 563.16016,419.31641 c -30.11997,0 -52.99808,6.93481 -68.66407,20.71679 -15.63698,13.81099 -23.48437,31.22029 -23.48437,52.19727 0,19.43998 5.68349,33.97727 17.02148,43.69726 11.33799,9.71999 30.81256,16.71216 58.39453,21.03516 28.73498,4.904 47.57495,9.3713 56.46094,13.4043 8.91499,4.00399 13.35742,10.56265 13.35742,19.55664 0,10.00999 -3.83613,17.64118 -11.45312,22.95117 -7.61699,5.27999 -18.78152,7.91992 -33.4375,7.91992 -18.37798,0 -34.76678,-2.61093 -49.13477,-7.91992 -14.36798,-5.28099 -27.81199,-13.23228 -40.33398,-23.82227 l -17.3086,33.83204 c 12.69399,12.56298 27.75371,21.81792 45.17969,27.79492 17.42599,5.97699 35.80313,8.96679 55.16211,8.96679 v -0.0586 c 31.70697,0 56.49122,-6.47017 74.4082,-19.41016 17.88699,-12.94098 26.85938,-31.07632 26.85938,-54.40429 0,-19.41098 -5.56939,-34.12057 -16.73438,-44.10157 -11.16498,-10.01098 -30.32137,-17.34978 -57.52734,-22.05078 -29.34197,-5.10599 -48.55654,-9.66338 -57.64453,-13.60937 -9.08799,-3.946 -13.64648,-10.44506 -13.64648,-19.49805 0,-9.66199 3.72073,-16.79945 11.16406,-21.41211 7.44399,-4.61399 17.6004,-6.93359 30.52539,-6.93359 13.87698,0 27.23493,2.34919 40.04492,6.99219 12.80899,4.67099 25.09981,11.45919 36.8418,20.36718 l 15.26172,-32.35156 c -9.57799,-10.61899 -22.64675,-18.88824 -39.17774,-24.86523 -16.58898,-6.006 -33.92978,-8.99414 -52.13476,-8.99414 z"
       style="clip-rule:evenodd;fill:currentColor;fill-rule:evenodd"
       id="path3" /><path
       d="m 1349.2852,417.98047 c -38.119,0 -86.2519,4.03418 -100.4629,48.36914 -7.528,23.47598 0.4367,36.1345 8.3867,48.77148 5.531,8.79099 11.0545,17.57163 11.3515,29.97461 0.324,13.67699 -4.645,25.33565 -9.375,36.43164 -7.9519,18.65999 -15.2276,35.72898 4.4844,58.12696 18.582,21.09398 52.9106,21.32617 85.2696,21.32617 32.3879,0 64.7755,-7.22455 81.4765,-21.64453 16.642,-14.42099 25.0059,-34.87592 25.0059,-61.33789 V 502.125 c 0,-26.83897 -8.3067,-47.5853 -24.8906,-62.23828 l 0.058,0.0293 c -16.5559,-14.62299 -48.9447,-21.93555 -81.3046,-21.93555 z m -1.7657,37.98242 c 17.916,0 38.5545,3.71187 46.0215,11.25586 7.468,7.54399 11.1719,20.39816 11.1719,38.61914 v 68.47461 c 0,17.84398 -3.7329,30.37941 -11.1719,37.69141 -7.467,7.31099 -28.1055,10.96679 -46.0215,10.96679 -17.916,0 -38.5515,-3.6558 -46.0195,-10.96679 -7.467,-7.312 -11.1719,-19.87643 -11.1719,-37.69141 v -68.47266 c 0,-18.22198 3.7339,-31.1061 11.1719,-38.62109 7.468,-7.51499 28.1035,-11.25586 46.0195,-11.25586 z"
       style="clip-rule:evenodd;fill:currentColor;fill-rule:evenodd"
       id="path2" /></g></svg>
